# xmcd
#
# Track frame offsets:
#	150
#	13979
#	32649
#	44733
#	59315
#	71659
#	85390
#	99497
#	116186
#	132933
#	150434
#	162203
#	178198
#	193766
#
# Disc length: 2855 seconds
#
# Revision: 1
# Processed by: cddbd v1.5.2PL0 Copyright (c) Steve Scherf et al.
# Submitted via: audiograbber 1.83.01
#
DISCID=c60b250e
DTITLE=Leann Rimes - Lady and Gentlemen
DYEAR=1900
DGENRE=
TTITLE0=Swingin'
TTITLE1=Wasted Days, Wasted Nights
TTITLE2=The Only Mama That'll Walk The Line
TTITLE3=I Can't Be Myself
TTITLE4=16 Tons
TTITLE5=Help Me Make It Through The Night
TTITLE6=Rose Coloured Glasses
TTITLE7=A Good Hearted Woman
TTITLE8=When I Call Your Name
TTITLE9=He Stopped Loving Her Today
TTITLE10=Blue
TTITLE11=The Bottle Let Me Down
TTITLE12=Crazy Woman
TTITLE13=Give
EXTD=
EXTT0=
EXTT1=
EXTT2=
EXTT3=
EXTT4=
EXTT5=
EXTT6=
EXTT7=
EXTT8=
EXTT9=
EXTT10=
EXTT11=
EXTT12=
EXTT13=
PLAYORDER=
